<svg id="2c516ca0-c287-4c54-8d45-91ae6f3f1d9f" data-name="Layer 1" xmlns="http://www.w3.org/2000/svg" xmlns:xlink="http://www.w3.org/1999/xlink" viewBox="0 0 161.57 161.57"><defs><style>.c3ce32de-7e4e-4d60-80f9-607f17ac41cb{fill:url(#3d302551-f967-47b3-94ee-361e7ff67206);}</style><linearGradient id="3d302551-f967-47b3-94ee-361e7ff67206" x1="167" y1="88.42" x2="10.26" y2="89.28" gradientUnits="userSpaceOnUse"><stop offset="0" stop-color="#ce202a"/><stop offset="0.32" stop-color="#bb1c28"/><stop offset="0.66" stop-color="#af1a27"/><stop offset="1" stop-color="#ab1927"/></linearGradient></defs><title>prowl_logo</title><path class="c3ce32de-7e4e-4d60-80f9-607f17ac41cb" d="M88.85,8.06a80.57,80.57,0,0,0-60.7,27.51c-1.47,3.66-5,15.1,7.65,15.48,0,0-11.74,5.49-13-8.73A80.77,80.77,0,0,0,17,51.85c.68,2.33,5.67,16.41,25.71,10.63,0,0-17.27,10.72-30-.66a80.2,80.2,0,0,0-3.21,11.9c2.73,2.52,12.27,9.33,29.84,1.72,21.15-9.15,38.53,6.26,38.53,6.26s-22.11-12-39.21-.49c-14.22,9.54-26.73,6.24-30.53,4.85,0,.92-.07,1.85-.07,2.78A81.45,81.45,0,0,0,8.72,99c4.63,1.85,18.22,5.4,39.37-4.78,26.5-12.74,39.9,7.41,39.9,7.41S68.83,87,49,99.93a77.62,77.62,0,0,1-37.42,12.48,80.23,80.23,0,0,0,5,12.53c14.56-13,35.72-2.72,35.72-2.72-21.44-4.08-28,7.55-29.86,12.61a81.21,81.21,0,0,0,9.51,11.36,18.15,18.15,0,0,1,10.28-12.6s-6.79,7.71-5,17.38a80.87,80.87,0,0,0,15.85,10.31c-2.4-4.5-5.87-14.6,1.39-27.69,0,0-6.67,26.82,22.21,35.13a81.4,81.4,0,0,0,12.18.92,80.53,80.53,0,0,0,29.29-5.5c-39.23,7.68-51.55-13.46-51.55-13.46,21.35,22.1,58.22,9.21,65.71,6.27A80.78,80.78,0,0,0,88.85,8.06ZM153,125.19a76.37,76.37,0,0,1-15.12,13.18,63.64,63.64,0,0,1-38.09,9.75c-9.32-.86-20.49-3.07-27.48-8.32a17.43,17.43,0,0,1-3.13-3,13,13,0,0,0,.51,6.6,18.21,18.21,0,0,1-2.59-12.69c.32-3.31,2.82-6.14,5-8l1.55-1.17a27.11,27.11,0,0,1,10.46-4.85,43.76,43.76,0,0,1,10.38-.83,16.78,16.78,0,0,1-3.94-6.1c3.38,5.52,13.19,7,13.43,7h0a85.42,85.42,0,0,1,10.69,2.41c20.35,6,23.82,2.48,23.82,2.48a24.72,24.72,0,0,0,5.11-5.72h0c1.21-1.65,3.22-8.6,4.28-12.48a17.74,17.74,0,0,0,.69-2.59l0-.07h0a23.85,23.85,0,0,0,.37-5,11.36,11.36,0,0,1-3.76.72,8.44,8.44,0,0,0,3.68-2.05l.12-.11a15.31,15.31,0,0,0,1.09-1.1,7.39,7.39,0,0,0,1.22-1.92c2.76-6.69-1.58-9-1.58-9-5.3-1.56-13.5-9.48-13.5-9.48C124.93,58.05,116.62,54.1,116.62,54.1a108.63,108.63,0,0,0-14-5.05c-2.26-.5-6.13-1-8.73.64A11.86,11.86,0,0,1,98.67,47c-2-2.89-8.52-9.62-25.73-8.45l-1.73.13s-5.16.61-12.5-2.79a31.61,31.61,0,0,0,1.81,6.91,8,8,0,0,0,2.33,2.81,10.64,10.64,0,0,1-2.34-1.41h0a7.8,7.8,0,0,0-4-1.06c-3.55,0-7,.09-10.43.24h0a8.07,8.07,0,0,1-3.61-.91c-2.87-1.55-2.85-6.23-2.85-6.23a11.2,11.2,0,0,0,1.44,2.94,5.94,5.94,0,0,1,.35-1.2c2.15-5.28,10.85-14.48,20.38-19.34a75.16,75.16,0,0,1,100.29,87.29C159.52,115.92,155.54,122.07,153,125.19ZM102.19,59.51C116.5,58.51,122.11,73,122.11,73c-13.47,3.12-16-9.31-16-9.31,3.47-.73,5.76,2.29,5.76,2.29C110.51,61.15,102.19,59.51,102.19,59.51Z" transform="translate(-8.06 -8.06)"/></svg>